<svg width="25" height="25" viewBox="0 0 25 25" fill="none" xmlns="http://www.w3.org/2000/svg">
<mask id="mask0_5_101" style="mask-type:alpha" maskUnits="userSpaceOnUse" x="2" y="4" width="21" height="17">
<path fill-rule="evenodd" clip-rule="evenodd" d="M3.5139 10.8724C3.02945 10.6072 2.55359 10.1801 2.55666 9.62787C2.56877 7.45288 2.66523 6.27499 3.43361 5.50661C4.31228 4.62793 5.7265 4.62793 8.55493 4.62793H16.5549C19.3833 4.62793 20.7975 4.62793 21.6762 5.50661C22.4446 6.27499 22.541 7.4529 22.5531 9.62792C22.5562 10.1802 22.0804 10.6072 21.596 10.8724C20.9756 11.212 20.555 11.8708 20.555 12.6279C20.555 13.385 20.9756 14.0438 21.596 14.3834C22.0804 14.6486 22.5562 15.0757 22.5531 15.6279C22.541 17.8029 22.4446 18.9808 21.6762 19.7492C20.7975 20.6279 19.3833 20.6279 16.5549 20.6279H8.55493C5.7265 20.6279 4.31228 20.6279 3.43361 19.7492C2.66523 18.9808 2.56877 17.8029 2.55666 15.628C2.55359 15.0757 3.02945 14.6486 3.5139 14.3834C4.13425 14.0438 4.55493 13.385 4.55493 12.6279C4.55493 11.8708 4.13425 11.212 3.5139 10.8724Z" fill="white"/>
</mask>
<g mask="url(#mask0_5_101)">
<path d="M21.6762 19.7492L22.7369 20.8099L21.6762 19.7492ZM3.4336 19.7492L2.37293 20.8099H2.37294L3.4336 19.7492ZM21.596 14.3834L22.3163 13.0677L21.596 14.3834ZM22.5531 15.6279L21.0532 15.6196L22.5531 15.6279ZM22.5531 9.62793L21.0532 9.63628L22.5531 9.62793ZM21.596 10.8724L22.3163 12.1881L21.596 10.8724ZM2.55665 9.62788L1.05668 9.61953L2.55665 9.62788ZM3.51389 10.8724L2.79362 12.1881L3.51389 10.8724ZM2.37294 4.44596C1.70727 5.11162 1.393 5.91519 1.23621 6.76877C1.08729 7.57948 1.06267 8.544 1.05668 9.61953L4.05663 9.63623C4.06275 8.53677 4.09241 7.82485 4.18684 7.31077C4.2734 6.83956 4.39154 6.66999 4.49426 6.56728L2.37294 4.44596ZM8.55492 3.12794C7.18311 3.12794 6.00335 3.12475 5.06323 3.25115C4.07995 3.38335 3.13743 3.68147 2.37294 4.44596L4.49426 6.56728C4.60844 6.45309 4.81236 6.31187 5.46297 6.2244C6.15673 6.13113 7.0983 6.12794 8.55492 6.12794V3.12794ZM16.5549 3.12794H8.55492V6.12794H16.5549V3.12794ZM22.7369 4.44596C21.9724 3.68147 21.0298 3.38335 20.0466 3.25115C19.1064 3.12475 17.9267 3.12794 16.5549 3.12794V6.12794C18.0115 6.12794 18.9531 6.13113 19.6468 6.2244C20.2974 6.31187 20.5014 6.45309 20.6155 6.56728L22.7369 4.44596ZM24.0531 9.61958C24.0471 8.54404 24.0225 7.57951 23.8736 6.76879C23.7168 5.9152 23.4025 5.11163 22.7369 4.44596L20.6155 6.56728C20.7183 6.67 20.8364 6.83957 20.923 7.31078C21.0174 7.82487 21.0471 8.5368 21.0532 9.63628L24.0531 9.61958ZM22.055 12.6279C22.055 12.4407 22.1573 12.2751 22.3163 12.1881L20.8757 9.5567C19.7939 10.1489 19.055 11.301 19.055 12.6279H22.055ZM22.3163 13.0677C22.1573 12.9807 22.055 12.8151 22.055 12.6279H19.055C19.055 13.9548 19.7939 15.107 20.8757 15.6991L22.3163 13.0677ZM22.7369 20.8099C23.4025 20.1442 23.7168 19.3406 23.8736 18.487C24.0225 17.6763 24.0471 16.7118 24.0531 15.6363L21.0532 15.6196C21.0471 16.719 21.0174 17.431 20.923 17.9451C20.8364 18.4163 20.7183 18.5858 20.6155 18.6886L22.7369 20.8099ZM16.5549 22.1279C17.9267 22.1279 19.1064 22.1311 20.0466 22.0047C21.0298 21.8725 21.9724 21.5744 22.7369 20.8099L20.6155 18.6886C20.5014 18.8027 20.2974 18.944 19.6468 19.0314C18.9531 19.1247 18.0115 19.1279 16.5549 19.1279V22.1279ZM8.55492 22.1279H16.5549V19.1279H8.55492V22.1279ZM2.37294 20.8099C3.13743 21.5744 4.07995 21.8725 5.06323 22.0047C6.00335 22.1311 7.18311 22.1279 8.55492 22.1279V19.1279C7.0983 19.1279 6.15673 19.1247 5.46297 19.0314C4.81236 18.944 4.60844 18.8027 4.49426 18.6886L2.37294 20.8099ZM1.05668 15.6363C1.06267 16.7118 1.08729 17.6764 1.23621 18.4871C1.393 19.3407 1.70727 20.1442 2.37293 20.8099L4.49426 18.6886C4.39154 18.5858 4.2734 18.4163 4.18684 17.9451C4.09241 17.431 4.06275 16.7191 4.05663 15.6196L1.05668 15.6363ZM3.05492 12.6279C3.05492 12.8152 2.95257 12.9807 2.79362 13.0677L4.23416 15.6992C5.31592 15.107 6.05492 13.9548 6.05492 12.6279H3.05492ZM2.79362 12.1881C2.95257 12.2751 3.05492 12.4406 3.05492 12.6279H6.05492C6.05492 11.301 5.31592 10.1488 4.23416 9.55666L2.79362 12.1881ZM4.05663 15.6196C4.0571 15.7038 4.03821 15.7753 4.01744 15.8242C3.99845 15.8689 3.9825 15.8845 3.99123 15.8743C4.00004 15.8641 4.02391 15.8393 4.06925 15.8047C4.11386 15.7707 4.16962 15.7345 4.23416 15.6992L2.79362 13.0677C2.45006 13.2557 2.04691 13.533 1.71367 13.9217C1.37374 14.3182 1.05258 14.8996 1.05668 15.6363L4.05663 15.6196ZM20.8757 15.6991C20.9402 15.7345 20.996 15.7707 21.0406 15.8047C21.0859 15.8393 21.1098 15.864 21.1186 15.8743C21.1273 15.8845 21.1113 15.8688 21.0924 15.8241C21.0716 15.7752 21.0527 15.7038 21.0532 15.6196L24.0531 15.6363C24.0572 14.8995 23.7361 14.3182 23.3962 13.9217C23.063 13.533 22.6598 13.2557 22.3163 13.0677L20.8757 15.6991ZM21.0532 9.63628C21.0527 9.55205 21.0716 9.48061 21.0924 9.43172C21.1113 9.38701 21.1273 9.37136 21.1186 9.38155C21.1098 9.39182 21.0859 9.41657 21.0406 9.45115C20.996 9.48518 20.9402 9.52137 20.8757 9.5567L22.3163 12.1881C22.6598 12.0001 23.063 11.7228 23.3962 11.3341C23.7361 10.9376 24.0572 10.3563 24.0531 9.61958L21.0532 9.63628ZM1.05668 9.61953C1.05258 10.3563 1.37374 10.9376 1.71367 11.3341C2.0469 11.7228 2.45006 12.0001 2.79362 12.1881L4.23416 9.55666C4.16962 9.52133 4.11386 9.48513 4.06925 9.4511C4.02391 9.41652 4.00004 9.39177 3.99123 9.3815C3.9825 9.3713 3.99845 9.38696 4.01744 9.43166C4.03821 9.48056 4.0571 9.552 4.05663 9.63623L1.05668 9.61953Z" fill="white"/>
<path d="M10.3052 6.37793V8.87793" stroke="white" stroke-width="1.5" stroke-linecap="round"/>
<path d="M10.3052 12.3779V13.8779" stroke="white" stroke-width="1.5" stroke-linecap="round"/>
<path d="M10.3052 17.3779V18.8779" stroke="white" stroke-width="1.5" stroke-linecap="round"/>
</g>
</svg>
