<svg width="48" height="40" viewBox="0 0 48 40" fill="none" xmlns="http://www.w3.org/2000/svg">
<g clip-path="url(#clip0_97_76)">
<path fill-rule="evenodd" clip-rule="evenodd" d="M45.9166 38.6667C45.9166 38.6667 49 38.6667 49 35.5556C49 32.4445 45.9166 23.1112 33.5833 23.1112C21.25 23.1112 18.1666 32.4445 18.1666 35.5556C18.1666 38.6667 21.25 38.6667 21.25 38.6667H45.9166ZM21.3178 35.5556H45.8488C45.8632 35.5539 45.8776 35.5518 45.892 35.5494L45.9166 35.5432C45.9105 34.7218 45.4017 32.3387 43.5733 30.192C41.8713 28.1791 38.8805 26.2223 33.5833 26.2223C28.2892 26.2223 25.2984 28.1823 23.5933 30.192C21.7649 32.3387 21.253 34.7249 21.25 35.5432C21.2725 35.5475 21.2951 35.5517 21.3178 35.5556ZM33.5833 16.8889C35.2188 16.8889 36.7873 16.2334 37.9438 15.0665C39.1003 13.8996 39.75 12.3169 39.75 10.6667C39.75 9.01647 39.1003 7.43382 37.9438 6.26693C36.7873 5.10004 35.2188 4.44448 33.5833 4.44448C31.9478 4.44448 30.3793 5.10004 29.2228 6.26693C28.0663 7.43382 27.4166 9.01647 27.4166 10.6667C27.4166 12.3169 28.0663 13.8996 29.2228 15.0665C30.3793 16.2334 31.9478 16.8889 33.5833 16.8889ZM42.8333 10.6667C42.8333 11.8924 42.594 13.106 42.1292 14.2384C41.6643 15.3708 40.983 16.3997 40.124 17.2664C39.2651 18.133 38.2454 18.8205 37.1231 19.2896C36.0009 19.7586 34.798 20 33.5833 20C32.3686 20 31.1657 19.7586 30.0435 19.2896C28.9212 18.8205 27.9015 18.133 27.0426 17.2664C26.1836 16.3997 25.5023 15.3708 25.0374 14.2384C24.5725 13.106 24.3333 11.8924 24.3333 10.6667C24.3333 8.19135 25.3078 5.81738 27.0426 4.06704C28.7773 2.3167 31.13 1.33337 33.5833 1.33337C36.0365 1.33337 38.3893 2.3167 40.124 4.06704C41.8587 5.81738 42.8333 8.19135 42.8333 10.6667ZM21.0526 23.9823C19.8192 23.5904 18.5478 23.3328 17.2601 23.2138C16.5366 23.1444 15.8101 23.1101 15.0833 23.1112C2.74996 23.1112 -0.333374 32.4445 -0.333374 35.5556C-0.333374 37.6307 0.693376 38.6667 2.74996 38.6667H15.7493C15.2922 37.6955 15.0642 36.6306 15.0833 35.5556C15.0833 32.4134 16.2457 29.2027 18.4441 26.5209C19.1934 25.6063 20.066 24.7507 21.0526 23.9823ZM14.8366 26.2223C9.69363 26.2845 6.77371 28.2134 5.09329 30.192C3.25254 32.3512 2.74996 34.7436 2.74996 35.5556H12C12 32.3045 12.9959 29.0658 14.8366 26.2223ZM4.29163 12.2223C4.29163 9.74691 5.26618 7.37294 7.00089 5.6226C8.7356 3.87226 11.0884 2.88893 13.5416 2.88893C15.9949 2.88893 18.3477 3.87226 20.0824 5.6226C21.8171 7.37294 22.7916 9.74691 22.7916 12.2223C22.7916 14.6976 21.8171 17.0716 20.0824 18.8219C18.3477 20.5723 15.9949 21.5556 13.5416 21.5556C11.0884 21.5556 8.7356 20.5723 7.00089 18.8219C5.26618 17.0716 4.29163 14.6976 4.29163 12.2223ZM13.5416 6.00004C11.9061 6.00004 10.3376 6.65559 9.18113 7.82249C8.02466 8.98938 7.37496 10.572 7.37496 12.2223C7.37496 13.8725 8.02466 15.4551 9.18113 16.622C10.3376 17.7889 11.9061 18.4445 13.5416 18.4445C15.1771 18.4445 16.7456 17.7889 17.9021 16.622C19.0586 15.4551 19.7083 13.8725 19.7083 12.2223C19.7083 10.572 19.0586 8.98938 17.9021 7.82249C16.7456 6.65559 15.1771 6.00004 13.5416 6.00004Z" fill="white"/>
</g>
<defs>
<clipPath id="clip0_97_76">
<rect width="48" height="39.5295" fill="white"/>
</clipPath>
</defs>
</svg>
