<svg width="48" height="38" viewBox="0 0 48 38" fill="none" xmlns="http://www.w3.org/2000/svg">
<path fill-rule="evenodd" clip-rule="evenodd" d="M45.9167 37.6667C45.9167 37.6667 49.0001 37.6667 49.0001 34.5556C49.0001 31.4445 45.9167 22.1112 33.5834 22.1112C21.2501 22.1112 18.1667 31.4445 18.1667 34.5556C18.1667 37.6667 21.2501 37.6667 21.2501 37.6667H45.9167ZM21.3179 34.5556H45.8489C45.8634 34.5539 45.8777 34.5518 45.8921 34.5494L45.9167 34.5432C45.9106 33.7218 45.4018 31.3387 43.5734 29.192C41.8714 27.1791 38.8806 25.2223 33.5834 25.2223C28.2893 25.2223 25.2985 27.1823 23.5934 29.192C21.765 31.3387 21.2532 33.7249 21.2501 34.5432C21.2726 34.5475 21.2953 34.5517 21.3179 34.5556ZM33.5834 15.8889C35.2189 15.8889 36.7874 15.2334 37.9439 14.0665C39.1004 12.8996 39.7501 11.3169 39.7501 9.66671C39.7501 8.01647 39.1004 6.43382 37.9439 5.26693C36.7874 4.10004 35.2189 3.44448 33.5834 3.44448C31.9479 3.44448 30.3794 4.10004 29.2229 5.26693C28.0664 6.43382 27.4167 8.01647 27.4167 9.66671C27.4167 11.3169 28.0664 12.8996 29.2229 14.0665C30.3794 15.2334 31.9479 15.8889 33.5834 15.8889ZM42.8334 9.66671C42.8334 10.8924 42.5942 12.106 42.1293 13.2384C41.6644 14.3708 40.9831 15.3997 40.1242 16.2664C39.2652 17.133 38.2455 17.8205 37.1232 18.2896C36.001 18.7586 34.7981 19 33.5834 19C32.3687 19 31.1659 18.7586 30.0436 18.2896C28.9213 17.8205 27.9016 17.133 27.0427 16.2664C26.1837 15.3997 25.5024 14.3708 25.0375 13.2384C24.5727 12.106 24.3334 10.8924 24.3334 9.66671C24.3334 7.19135 25.308 4.81738 27.0427 3.06704C28.7774 1.3167 31.1302 0.333374 33.5834 0.333374C36.0367 0.333374 38.3894 1.3167 40.1242 3.06704C41.8589 4.81738 42.8334 7.19135 42.8334 9.66671ZM21.0527 22.9823C19.8194 22.5904 18.548 22.3328 17.2602 22.2138C16.5367 22.1444 15.8102 22.1101 15.0834 22.1112C2.75008 22.1112 -0.333252 31.4445 -0.333252 34.5556C-0.333252 36.6307 0.693498 37.6667 2.75008 37.6667H15.7494C15.2923 36.6955 15.0644 35.6306 15.0834 34.5556C15.0834 31.4134 16.2458 28.2027 18.4442 25.5209C19.1935 24.6063 20.0661 23.7507 21.0527 22.9823ZM14.8367 25.2223C9.69375 25.2845 6.77383 27.2134 5.09341 29.192C3.25266 31.3512 2.75008 33.7436 2.75008 34.5556H12.0001C12.0001 31.3045 12.996 28.0658 14.8367 25.2223ZM4.29175 11.2223C4.29175 8.74691 5.2663 6.37294 7.00101 4.6226C8.73572 2.87226 11.0885 1.88893 13.5417 1.88893C15.995 1.88893 18.3478 2.87226 20.0825 4.6226C21.8172 6.37294 22.7917 8.74691 22.7917 11.2223C22.7917 13.6976 21.8172 16.0716 20.0825 17.8219C18.3478 19.5723 15.995 20.5556 13.5417 20.5556C11.0885 20.5556 8.73572 19.5723 7.00101 17.8219C5.2663 16.0716 4.29175 13.6976 4.29175 11.2223ZM13.5417 5.00004C11.9062 5.00004 10.3377 5.65559 9.18126 6.82249C8.02478 7.98938 7.37508 9.57203 7.37508 11.2223C7.37508 12.8725 8.02478 14.4551 9.18126 15.622C10.3377 16.7889 11.9062 17.4445 13.5417 17.4445C15.1772 17.4445 16.7458 16.7889 17.9022 15.622C19.0587 14.4551 19.7084 12.8725 19.7084 11.2223C19.7084 9.57203 19.0587 7.98938 17.9022 6.82249C16.7458 5.65559 15.1772 5.00004 13.5417 5.00004Z" fill="#23A6F0"/>
</svg>
